<mxfile host="Electron" agent="Mozilla/5.0 (Windows NT 10.0; Win64; x64) AppleWebKit/537.36 (KHTML, like Gecko) draw.io/27.0.9 Chrome/134.0.6998.205 Electron/35.4.0 Safari/537.36" version="27.0.9">
  <diagram name="Página-1" id="eCMXaztZ3c9ds6zoIHv_">
    <mxGraphModel dx="1693" dy="993" grid="1" gridSize="10" guides="1" tooltips="1" connect="1" arrows="1" fold="1" page="1" pageScale="1" pageWidth="1200" pageHeight="1600" math="0" shadow="0">
      <root>
        <object label="" id="0">
          <mxCell />
        </object>
        <mxCell id="1" parent="0" />
        <mxCell id="WOnT1WGPYYrjuM2LiCz1-24" value="Alumno" style="whiteSpace=wrap;html=1;align=center;fillColor=#f0a30a;strokeColor=#BD7000;fontColor=#000000;" vertex="1" parent="1">
          <mxGeometry x="110" y="440" width="100" height="40" as="geometry" />
        </mxCell>
        <mxCell id="WOnT1WGPYYrjuM2LiCz1-34" value="" style="endArrow=none;html=1;rounded=0;exitX=0.5;exitY=0;exitDx=0;exitDy=0;" edge="1" target="WOnT1WGPYYrjuM2LiCz1-35" parent="1" source="WOnT1WGPYYrjuM2LiCz1-24">
          <mxGeometry relative="1" as="geometry">
            <mxPoint x="160" y="430" as="sourcePoint" />
            <mxPoint x="630" y="625" as="targetPoint" />
          </mxGeometry>
        </mxCell>
        <mxCell id="WOnT1WGPYYrjuM2LiCz1-35" value="&lt;u&gt;Num_Matricula&lt;/u&gt;" style="ellipse;whiteSpace=wrap;html=1;align=center;" vertex="1" parent="1">
          <mxGeometry x="135" y="300" width="50" height="30" as="geometry" />
        </mxCell>
        <mxCell id="WOnT1WGPYYrjuM2LiCz1-46" value="" style="endArrow=none;html=1;rounded=0;exitX=1;exitY=0;exitDx=0;exitDy=0;" edge="1" target="WOnT1WGPYYrjuM2LiCz1-47" parent="1" source="WOnT1WGPYYrjuM2LiCz1-24">
          <mxGeometry relative="1" as="geometry">
            <mxPoint x="210" y="315" as="sourcePoint" />
            <mxPoint x="270" y="315" as="targetPoint" />
          </mxGeometry>
        </mxCell>
        <mxCell id="WOnT1WGPYYrjuM2LiCz1-47" value="Nombre" style="ellipse;whiteSpace=wrap;html=1;align=center;" vertex="1" parent="1">
          <mxGeometry x="240" y="300" width="50" height="30" as="geometry" />
        </mxCell>
        <mxCell id="WOnT1WGPYYrjuM2LiCz1-48" value="" style="endArrow=none;html=1;rounded=0;exitX=0;exitY=0;exitDx=0;exitDy=0;" edge="1" target="WOnT1WGPYYrjuM2LiCz1-49" parent="1" source="WOnT1WGPYYrjuM2LiCz1-24">
          <mxGeometry relative="1" as="geometry">
            <mxPoint y="315" as="sourcePoint" />
            <mxPoint x="60" y="315" as="targetPoint" />
          </mxGeometry>
        </mxCell>
        <mxCell id="WOnT1WGPYYrjuM2LiCz1-49" value="FechaNacimiento" style="ellipse;whiteSpace=wrap;html=1;align=center;" vertex="1" parent="1">
          <mxGeometry x="35" y="300" width="50" height="30" as="geometry" />
        </mxCell>
        <mxCell id="WOnT1WGPYYrjuM2LiCz1-50" value="" style="endArrow=none;html=1;rounded=0;exitX=0.5;exitY=1;exitDx=0;exitDy=0;" edge="1" target="WOnT1WGPYYrjuM2LiCz1-51" parent="1" source="WOnT1WGPYYrjuM2LiCz1-24">
          <mxGeometry relative="1" as="geometry">
            <mxPoint x="100" y="555" as="sourcePoint" />
            <mxPoint x="160" y="555" as="targetPoint" />
          </mxGeometry>
        </mxCell>
        <mxCell id="WOnT1WGPYYrjuM2LiCz1-51" value="Telefono" style="ellipse;whiteSpace=wrap;html=1;align=center;" vertex="1" parent="1">
          <mxGeometry x="135" y="540" width="50" height="30" as="geometry" />
        </mxCell>
        <mxCell id="WOnT1WGPYYrjuM2LiCz1-52" value="Asignatura" style="whiteSpace=wrap;html=1;align=center;fillColor=#f0a30a;strokeColor=#BD7000;fontColor=#000000;" vertex="1" parent="1">
          <mxGeometry x="550" y="880" width="100" height="40" as="geometry" />
        </mxCell>
        <mxCell id="WOnT1WGPYYrjuM2LiCz1-53" value="" style="endArrow=none;html=1;rounded=0;exitX=0.5;exitY=0;exitDx=0;exitDy=0;" edge="1" parent="1" source="WOnT1WGPYYrjuM2LiCz1-52" target="WOnT1WGPYYrjuM2LiCz1-54">
          <mxGeometry relative="1" as="geometry">
            <mxPoint x="600" y="870" as="sourcePoint" />
            <mxPoint x="1070" y="1065" as="targetPoint" />
          </mxGeometry>
        </mxCell>
        <mxCell id="WOnT1WGPYYrjuM2LiCz1-54" value="&lt;u&gt;Código_asignatura&lt;/u&gt;" style="ellipse;whiteSpace=wrap;html=1;align=center;" vertex="1" parent="1">
          <mxGeometry x="575" y="740" width="50" height="30" as="geometry" />
        </mxCell>
        <mxCell id="WOnT1WGPYYrjuM2LiCz1-59" value="" style="endArrow=none;html=1;rounded=0;exitX=0.5;exitY=1;exitDx=0;exitDy=0;" edge="1" parent="1" source="WOnT1WGPYYrjuM2LiCz1-52" target="WOnT1WGPYYrjuM2LiCz1-60">
          <mxGeometry relative="1" as="geometry">
            <mxPoint x="540" y="995" as="sourcePoint" />
            <mxPoint x="600" y="995" as="targetPoint" />
          </mxGeometry>
        </mxCell>
        <mxCell id="WOnT1WGPYYrjuM2LiCz1-60" value="Nombre" style="ellipse;whiteSpace=wrap;html=1;align=center;" vertex="1" parent="1">
          <mxGeometry x="575" y="980" width="50" height="30" as="geometry" />
        </mxCell>
        <mxCell id="WOnT1WGPYYrjuM2LiCz1-62" value="Profesor" style="whiteSpace=wrap;html=1;align=center;fillColor=#f0a30a;strokeColor=#BD7000;fontColor=#000000;" vertex="1" parent="1">
          <mxGeometry x="985" y="440" width="100" height="40" as="geometry" />
        </mxCell>
        <mxCell id="WOnT1WGPYYrjuM2LiCz1-63" value="" style="endArrow=none;html=1;rounded=0;exitX=0.5;exitY=0;exitDx=0;exitDy=0;" edge="1" parent="1" source="WOnT1WGPYYrjuM2LiCz1-62" target="WOnT1WGPYYrjuM2LiCz1-64">
          <mxGeometry relative="1" as="geometry">
            <mxPoint x="1035" y="430" as="sourcePoint" />
            <mxPoint x="1505" y="625" as="targetPoint" />
          </mxGeometry>
        </mxCell>
        <mxCell id="WOnT1WGPYYrjuM2LiCz1-64" value="&lt;u&gt;Id_P&lt;/u&gt;" style="ellipse;whiteSpace=wrap;html=1;align=center;" vertex="1" parent="1">
          <mxGeometry x="1010" y="300" width="50" height="30" as="geometry" />
        </mxCell>
        <mxCell id="WOnT1WGPYYrjuM2LiCz1-65" value="" style="endArrow=none;html=1;rounded=0;exitX=1;exitY=0;exitDx=0;exitDy=0;" edge="1" parent="1" source="WOnT1WGPYYrjuM2LiCz1-62" target="WOnT1WGPYYrjuM2LiCz1-66">
          <mxGeometry relative="1" as="geometry">
            <mxPoint x="1085" y="315" as="sourcePoint" />
            <mxPoint x="1145" y="315" as="targetPoint" />
          </mxGeometry>
        </mxCell>
        <mxCell id="WOnT1WGPYYrjuM2LiCz1-66" value="Nombre" style="ellipse;whiteSpace=wrap;html=1;align=center;" vertex="1" parent="1">
          <mxGeometry x="1115" y="300" width="50" height="30" as="geometry" />
        </mxCell>
        <mxCell id="WOnT1WGPYYrjuM2LiCz1-67" value="" style="endArrow=none;html=1;rounded=0;exitX=0;exitY=0;exitDx=0;exitDy=0;" edge="1" parent="1" source="WOnT1WGPYYrjuM2LiCz1-62" target="WOnT1WGPYYrjuM2LiCz1-68">
          <mxGeometry relative="1" as="geometry">
            <mxPoint x="875" y="315" as="sourcePoint" />
            <mxPoint x="935" y="315" as="targetPoint" />
          </mxGeometry>
        </mxCell>
        <mxCell id="WOnT1WGPYYrjuM2LiCz1-68" value="Especialidad" style="ellipse;whiteSpace=wrap;html=1;align=center;" vertex="1" parent="1">
          <mxGeometry x="910" y="300" width="50" height="30" as="geometry" />
        </mxCell>
        <mxCell id="WOnT1WGPYYrjuM2LiCz1-69" value="" style="endArrow=none;html=1;rounded=0;exitX=0.5;exitY=1;exitDx=0;exitDy=0;" edge="1" parent="1" source="WOnT1WGPYYrjuM2LiCz1-62" target="WOnT1WGPYYrjuM2LiCz1-70">
          <mxGeometry relative="1" as="geometry">
            <mxPoint x="975" y="555" as="sourcePoint" />
            <mxPoint x="1035" y="555" as="targetPoint" />
          </mxGeometry>
        </mxCell>
        <mxCell id="WOnT1WGPYYrjuM2LiCz1-70" value="NIF_P" style="ellipse;whiteSpace=wrap;html=1;align=center;" vertex="1" parent="1">
          <mxGeometry x="960" y="540" width="50" height="30" as="geometry" />
        </mxCell>
        <mxCell id="WOnT1WGPYYrjuM2LiCz1-72" value="" style="endArrow=none;html=1;rounded=0;exitX=0.5;exitY=1;exitDx=0;exitDy=0;" edge="1" target="WOnT1WGPYYrjuM2LiCz1-73" parent="1" source="WOnT1WGPYYrjuM2LiCz1-62">
          <mxGeometry relative="1" as="geometry">
            <mxPoint x="1030" y="555" as="sourcePoint" />
            <mxPoint x="1090" y="555" as="targetPoint" />
          </mxGeometry>
        </mxCell>
        <mxCell id="WOnT1WGPYYrjuM2LiCz1-73" value="Telefono" style="ellipse;whiteSpace=wrap;html=1;align=center;" vertex="1" parent="1">
          <mxGeometry x="1065" y="540" width="50" height="30" as="geometry" />
        </mxCell>
        <mxCell id="WOnT1WGPYYrjuM2LiCz1-74" value="Matriculado" style="shape=rhombus;perimeter=rhombusPerimeter;whiteSpace=wrap;html=1;align=center;fillColor=#76608a;fontColor=#ffffff;strokeColor=#432D57;rotation=50;" vertex="1" parent="1">
          <mxGeometry x="330" y="680" width="90" height="40" as="geometry" />
        </mxCell>
        <mxCell id="WOnT1WGPYYrjuM2LiCz1-75" value="" style="endArrow=none;html=1;rounded=0;exitX=0;exitY=0.5;exitDx=0;exitDy=0;entryX=1;entryY=1;entryDx=0;entryDy=0;" edge="1" source="WOnT1WGPYYrjuM2LiCz1-74" parent="1" target="WOnT1WGPYYrjuM2LiCz1-24">
          <mxGeometry relative="1" as="geometry">
            <mxPoint x="307" y="580" as="sourcePoint" />
            <mxPoint x="260" y="610" as="targetPoint" />
          </mxGeometry>
        </mxCell>
        <mxCell id="WOnT1WGPYYrjuM2LiCz1-76" value="(1,M)" style="resizable=0;html=1;whiteSpace=wrap;align=right;verticalAlign=bottom;" connectable="0" vertex="1" parent="WOnT1WGPYYrjuM2LiCz1-75">
          <mxGeometry x="1" relative="1" as="geometry">
            <mxPoint x="34" as="offset" />
          </mxGeometry>
        </mxCell>
        <mxCell id="WOnT1WGPYYrjuM2LiCz1-77" value="" style="endArrow=none;html=1;rounded=0;exitX=1;exitY=0.5;exitDx=0;exitDy=0;entryX=0;entryY=0;entryDx=0;entryDy=0;" edge="1" source="WOnT1WGPYYrjuM2LiCz1-74" parent="1" target="WOnT1WGPYYrjuM2LiCz1-52">
          <mxGeometry relative="1" as="geometry">
            <mxPoint x="307" y="580" as="sourcePoint" />
            <mxPoint x="510" y="830" as="targetPoint" />
          </mxGeometry>
        </mxCell>
        <mxCell id="WOnT1WGPYYrjuM2LiCz1-78" value="(1,N)" style="resizable=0;html=1;whiteSpace=wrap;align=right;verticalAlign=bottom;" connectable="0" vertex="1" parent="WOnT1WGPYYrjuM2LiCz1-77">
          <mxGeometry x="1" relative="1" as="geometry">
            <mxPoint as="offset" />
          </mxGeometry>
        </mxCell>
        <mxCell id="WOnT1WGPYYrjuM2LiCz1-82" value="Imparte" style="shape=rhombus;perimeter=rhombusPerimeter;whiteSpace=wrap;html=1;align=center;fillColor=#76608a;fontColor=#ffffff;strokeColor=#432D57;rotation=-45;" vertex="1" parent="1">
          <mxGeometry x="760" y="680" width="90" height="40" as="geometry" />
        </mxCell>
        <mxCell id="WOnT1WGPYYrjuM2LiCz1-83" value="" style="endArrow=none;html=1;rounded=0;exitX=0;exitY=0.5;exitDx=0;exitDy=0;entryX=1;entryY=0;entryDx=0;entryDy=0;" edge="1" source="WOnT1WGPYYrjuM2LiCz1-82" parent="1" target="WOnT1WGPYYrjuM2LiCz1-52">
          <mxGeometry relative="1" as="geometry">
            <mxPoint x="737" y="670" as="sourcePoint" />
            <mxPoint x="690" y="700" as="targetPoint" />
          </mxGeometry>
        </mxCell>
        <mxCell id="WOnT1WGPYYrjuM2LiCz1-84" value="(1,N)" style="resizable=0;html=1;whiteSpace=wrap;align=right;verticalAlign=bottom;" connectable="0" vertex="1" parent="WOnT1WGPYYrjuM2LiCz1-83">
          <mxGeometry x="1" relative="1" as="geometry">
            <mxPoint x="34" as="offset" />
          </mxGeometry>
        </mxCell>
        <mxCell id="WOnT1WGPYYrjuM2LiCz1-85" value="" style="endArrow=none;html=1;rounded=0;exitX=1;exitY=0.5;exitDx=0;exitDy=0;entryX=0;entryY=1;entryDx=0;entryDy=0;" edge="1" source="WOnT1WGPYYrjuM2LiCz1-82" parent="1" target="WOnT1WGPYYrjuM2LiCz1-62">
          <mxGeometry relative="1" as="geometry">
            <mxPoint x="737" y="670" as="sourcePoint" />
            <mxPoint x="910" y="700" as="targetPoint" />
          </mxGeometry>
        </mxCell>
        <mxCell id="WOnT1WGPYYrjuM2LiCz1-86" value="(1,1)" style="resizable=0;html=1;whiteSpace=wrap;align=right;verticalAlign=bottom;" connectable="0" vertex="1" parent="WOnT1WGPYYrjuM2LiCz1-85">
          <mxGeometry x="1" relative="1" as="geometry">
            <mxPoint as="offset" />
          </mxGeometry>
        </mxCell>
        <mxCell id="WOnT1WGPYYrjuM2LiCz1-87" value="" style="endArrow=none;html=1;rounded=0;exitX=0.518;exitY=0.937;exitDx=0;exitDy=0;exitPerimeter=0;" edge="1" target="WOnT1WGPYYrjuM2LiCz1-88" parent="1" source="WOnT1WGPYYrjuM2LiCz1-74">
          <mxGeometry relative="1" as="geometry">
            <mxPoint x="170" y="756" as="sourcePoint" />
            <mxPoint x="230" y="756" as="targetPoint" />
          </mxGeometry>
        </mxCell>
        <mxCell id="WOnT1WGPYYrjuM2LiCz1-88" value="Curso_Escolar" style="ellipse;whiteSpace=wrap;html=1;align=center;" vertex="1" parent="1">
          <mxGeometry x="240" y="720" width="50" height="30" as="geometry" />
        </mxCell>
      </root>
    </mxGraphModel>
  </diagram>
</mxfile>
